<svg width="84" height="54" viewBox="0 0 84 54" fill="none" xmlns="http://www.w3.org/2000/svg">
<path d="M7 0C3.13936 0 0 3.1394 0 7V47C0 50.8606 3.13936 54 7 54H77C80.8606 54 84 50.8606 84 47V7C84 3.1394 80.8606 0 77 0H7ZM7 2H77C78.2276 2 79.3227 2.469 80.1875 3.1875L45.6562 32.5938C43.4395 34.4788 40.4956 34.4799 38.2812 32.5938L3.8125 3.1875C4.67726 2.469 5.77236 2 7 2ZM2.53125 4.78119L37 34.125C39.9049 36.5994 44.0312 36.5964 46.9375 34.125L81.4688 4.78119C81.8046 5.45579 82 6.1871 82 7V47C82 49.7872 79.7872 52 77 52H7C4.21276 52 2 49.7872 2 47V7C2 6.1871 2.19542 5.45579 2.53125 4.78119Z" fill="black"/>
</svg>
