<svg width="88" height="88" viewBox="0 0 88 88" fill="none" xmlns="http://www.w3.org/2000/svg">
<path d="M16.1377 0.00316448C14.5752 0.0500395 13.0283 0.659415 11.833 1.85476L6.48922 7.19856C-2.16307 15.8509 -2.16307 29.9256 6.48922 38.5776L48.9192 81.0076C57.5715 89.6599 71.6462 89.6599 80.2982 81.0076L85.642 75.6638C88.3725 72.9333 88.0443 68.3474 84.9545 66.031L72.6965 56.8318C69.5012 54.4373 64.9973 54.7537 62.1735 57.5779C59.111 60.6404 54.1891 60.6404 51.1265 57.5779L29.9195 36.3709C26.8531 33.3045 26.8531 28.3865 29.9195 25.3239C32.7047 22.5348 33.0328 17.9567 30.6656 14.8009L21.4703 2.54285C20.1656 0.804554 18.1416 -0.0593355 16.1377 0.00316448ZM16.251 3.09696C17.2705 3.06181 18.2901 3.50712 18.9698 4.41336L28.1651 16.6714C29.5284 18.4878 29.3135 21.5034 27.7081 23.1089C23.4503 27.3667 23.4503 34.3199 27.7081 38.5779L48.9231 59.7929C53.1809 64.0507 60.1341 64.0507 64.3921 59.7929C66.1343 58.0507 68.8569 57.8593 70.8296 59.3358L83.0876 68.5311C84.7009 69.742 84.861 72.0311 83.4352 73.4569L78.0914 78.7967C70.6344 86.2537 58.5914 86.2537 51.1344 78.7967L8.70444 36.3707C1.24744 28.9137 1.24744 16.8707 8.70444 9.41373L14.0442 4.06603C14.6653 3.44494 15.4581 3.1243 16.251 3.09696ZM43.751 12.5072C43.3369 12.5033 42.9385 12.6673 42.6455 12.9603C42.3525 13.2494 42.1846 13.6478 42.1846 14.0619C42.1807 14.4799 42.3447 14.8783 42.6416 15.1713C42.9346 15.4682 43.333 15.6322 43.751 15.6322C59.302 15.6322 71.872 28.1982 71.872 43.7492C71.8759 44.1633 72.04 44.5617 72.3329 44.8508C72.6298 45.1438 73.0282 45.3079 73.4423 45.304C74.2978 45.3001 74.9931 44.6087 74.997 43.7493C74.997 26.5113 60.989 12.5072 43.751 12.5072ZM43.751 21.8705V21.8666C43.333 21.8666 42.9346 22.0306 42.6377 22.3275C42.3447 22.6205 42.1807 23.0228 42.1846 23.4408C42.1846 23.8549 42.3526 24.2494 42.6455 24.5424C42.9385 24.8354 43.3369 24.9994 43.751 24.9955C54.126 24.9955 62.505 33.3744 62.509 43.7495C62.509 44.6089 63.2043 45.3003 64.0637 45.3042C64.9231 45.3003 65.6184 44.6089 65.6184 43.7495C65.6184 31.6875 55.8133 21.8705 43.751 21.8705ZM43.751 31.2455C43.333 31.2455 42.9346 31.4095 42.6416 31.7025C42.3447 31.9994 42.1807 32.3978 42.1846 32.8158C42.1846 33.2298 42.3525 33.6244 42.6455 33.9174C42.9385 34.2104 43.3369 34.3744 43.751 34.3705C48.9463 34.3705 53.1299 38.5541 53.1299 43.7494C53.1338 44.6088 53.8291 45.3002 54.6846 45.3041C55.0987 45.308 55.4971 45.1439 55.794 44.851C56.087 44.5619 56.251 44.1635 56.255 43.7494C56.255 36.8627 50.6378 31.2455 43.751 31.2455Z" fill="black"/>
</svg>
